<svg width="63" height="62" viewBox="0 0 63 62" fill="none" xmlns="http://www.w3.org/2000/svg">
<path d="M31.7707 32.4038C30.3455 31.9372 29.5543 30.8875 29.5543 29.4632C29.5543 27.715 30.7856 26.4843 32.5347 26.4843C34.2837 26.4843 35.515 27.715 35.515 29.4632C35.515 30.6752 34.95 31.609 33.8857 32.1562C33.3373 32.4381 32.2606 32.5641 31.7707 32.4038ZM2.00961 31.3316C1.38534 31.1349 0.320698 30.0326 0.129278 29.3849C-0.45356 27.4126 1.00881 25.394 3.02044 25.394C4.38342 25.394 5.67817 26.4257 5.9484 27.7271C6.19291 28.9047 5.95646 29.7311 5.14395 30.5385C4.23291 31.4438 3.19724 31.7059 2.00961 31.3316ZM22.6132 27.3172C21.188 26.8506 20.3968 25.8009 20.3968 24.3767C20.3968 22.6285 21.6281 21.3977 23.3771 21.3977C25.1262 21.3977 26.3575 22.6285 26.3575 24.3767C26.3575 25.5887 25.7925 26.5224 24.7282 27.0696C24.1798 27.3515 23.1031 27.4776 22.6132 27.3172ZM40.9282 27.3172C39.503 26.8506 38.7118 25.8009 38.7118 24.3767C38.7118 22.6285 39.9431 21.3977 41.6922 21.3977C43.4412 21.3977 44.6725 22.6285 44.6725 24.3767C44.6725 25.5887 44.1076 26.5224 43.0432 27.0696C42.4949 27.3515 41.4181 27.4776 40.9282 27.3172ZM2.00961 22.1758C1.38534 21.979 0.320698 20.8768 0.129278 20.2291C-0.45356 18.2568 1.00881 16.2381 3.02044 16.2381C4.38342 16.2381 5.67817 17.2699 5.9484 18.5713C6.19291 19.7489 5.95646 20.5752 5.14395 21.3827C4.23291 22.288 3.19724 22.55 2.00961 22.1758ZM31.7707 22.2306C30.3455 21.7641 29.5543 20.7144 29.5543 19.2901C29.5543 17.5419 30.7856 16.3111 32.5347 16.3111C34.2837 16.3111 35.515 17.5419 35.515 19.2901C35.515 20.5021 34.95 21.4359 33.8857 21.983C33.3373 22.2649 32.2606 22.391 31.7707 22.2306ZM22.6132 17.144C21.188 16.6775 20.3968 15.6278 20.3968 14.2035C20.3968 11.0323 24.5991 10.0366 26.0827 12.8562C26.4404 13.5362 26.4612 14.8318 26.1247 15.4752C25.7991 16.0976 25.3061 16.5994 24.7282 16.8965C24.1798 17.1784 23.1031 17.3044 22.6132 17.144ZM40.9282 17.144C40.028 16.8493 39.3769 16.3016 38.9446 15.4752C38.6081 14.8318 38.6289 13.5362 38.9867 12.8562C40.4703 10.0366 44.6725 11.0323 44.6725 14.2035C44.6725 15.4155 44.1076 16.3493 43.0432 16.8965C42.4949 17.1784 41.4181 17.3044 40.9282 17.144H40.9282ZM2.00961 13.0199C1.38534 12.8232 0.320698 11.721 0.129278 11.0732C-0.45356 9.10095 1.00881 7.08231 3.02044 7.08231C4.38342 7.08231 5.67817 8.11404 5.9484 9.41546C6.19291 10.5931 5.95646 11.4194 5.14395 12.2268C4.23291 13.1321 3.19724 13.3942 2.00961 13.0199ZM31.7707 12.0575C30.3455 11.5909 29.5543 10.5412 29.5543 9.11694C29.5543 7.36874 30.7856 6.13799 32.5347 6.13799C34.2837 6.13799 35.515 7.36874 35.515 9.11694C35.515 10.329 34.95 11.2627 33.8857 11.8099C33.3373 12.0918 32.2606 12.2178 31.7707 12.0575Z" fill="#FFA41D"/>
<path d="M21.3421 58.8636C21.3421 50.1788 19.3204 42.8573 14.6956 34.7945C12.9297 31.7159 12.2479 30.0774 11.6833 27.5558C11.3888 26.2405 11.3367 25.7612 11.4655 25.5528C11.5402 25.432 12.3986 25.394 15.0479 25.394H18.5321L18.7971 25.9929C19.3235 27.1828 20.6642 29.0046 21.8687 30.1669C24.7264 32.9245 28.0812 34.3688 31.9623 34.5126C36.4936 34.6805 40.4653 33.0469 43.6448 29.7076C45.5183 27.7401 46.7402 25.4829 47.4259 22.7235C47.6839 21.6852 47.7261 21.2027 47.7261 19.2901C47.7261 16.7846 47.5159 15.6249 46.6903 13.5748C44.3885 7.85983 38.709 4.03036 32.5347 4.03036C28.3809 4.03036 24.3608 5.76649 21.4667 8.81032C20.4539 9.87551 19.2308 11.607 18.7944 12.5934L18.5321 13.1862H15.9922H13.4522L13.789 12.5186C14.6852 10.7419 16.2197 8.77257 18.1251 6.95375C24.9143 0.47292 35.1471 -0.858017 43.477 3.65633C49.8931 7.13353 54.0446 13.5113 54.7875 21.0318C54.9112 22.2848 55.0183 22.6025 57.9578 30.442L61 38.5555L56.4336 38.5888L51.8672 38.6222V40.667V42.7117L49.4188 42.6662C47.3414 42.6275 46.903 42.585 46.5253 42.3856C45.5952 41.8947 44.9988 41.1001 44.8197 40.1133L44.7331 39.6364H43.7036H42.6741L42.7463 40.3362C42.9071 41.8934 44.1685 43.6003 45.6717 44.2945C46.4513 44.6546 46.4972 44.6599 49.1644 44.7002L51.8672 44.7411V48.2918V51.8426L42.2436 51.8752L32.62 51.9078L35.1211 52.9054L37.6222 53.9031V57.4516V61H29.4821H21.3421V58.8636ZM11.1671 22.2308C11.1671 21.61 11.2029 20.9233 11.2466 20.7048L11.3261 20.3074H14.2778H17.2295L17.439 21.5472C17.5542 22.2292 17.6849 22.9159 17.7295 23.0732L17.8105 23.3593H14.4888H11.1671V22.2308ZM11.7305 17.8307C11.7761 17.5876 11.9685 16.9152 12.158 16.3365L12.5026 15.2844L15.1573 15.25L17.8119 15.2156L17.7302 15.5043C17.6853 15.6631 17.5542 16.351 17.439 17.0329L17.2295 18.2728H14.4385H11.6476L11.7305 17.8307Z" stroke="#103445" stroke-width="1.53511"/>
<path d="M31.1053 34.4599C31.2635 34.4294 31.4924 34.4306 31.614 34.4623C31.7356 34.4941 31.6062 34.519 31.3264 34.5176C31.0466 34.5161 30.9471 34.4901 31.1053 34.4597V34.4599ZM33.5218 34.4599C33.6801 34.4294 33.909 34.4306 34.0306 34.4623C34.1522 34.4941 34.0228 34.519 33.7429 34.5176C33.4631 34.5161 33.3636 34.4901 33.5218 34.4597V34.4599ZM30.0942 34.3358C30.1861 34.299 30.2958 34.3036 30.338 34.3458C30.3803 34.3881 30.3051 34.4181 30.1711 34.4126C30.0229 34.4065 29.9928 34.3764 30.0942 34.3358V34.3358ZM34.8002 34.3358C34.892 34.299 35.0017 34.3036 35.044 34.3458C35.0862 34.3881 35.0111 34.4181 34.877 34.4126C34.7289 34.4065 34.6987 34.3764 34.8002 34.3358V34.3358ZM22.4152 30.7031L22.0417 30.2898L22.455 30.6633C22.8403 31.0114 22.9269 31.1164 22.8286 31.1164C22.8067 31.1164 22.6207 30.9304 22.4152 30.7031ZM42.4553 30.7984C42.6196 30.6236 42.7826 30.4805 42.8176 30.4805C42.8526 30.4805 42.7468 30.6236 42.5825 30.7984C42.4182 30.9733 42.2551 31.1164 42.2202 31.1164C42.1852 31.1164 42.291 30.9733 42.4553 30.7984ZM20.889 29.1771L20.5154 28.7638L20.9288 29.1373C21.1561 29.3427 21.3421 29.5287 21.3421 29.5506C21.3421 29.6488 21.2372 29.5623 20.889 29.1771ZM43.7272 29.5506C43.7272 29.5287 43.9132 29.3427 44.1405 29.1373L44.5539 28.7638L44.1803 29.1771C43.8321 29.5623 43.7272 29.6488 43.7272 29.5506ZM44.4903 28.6522C44.4903 28.6258 44.5905 28.5257 44.7129 28.4297C44.9146 28.2715 44.9191 28.276 44.7609 28.4777C44.5947 28.6895 44.4903 28.7569 44.4903 28.6522ZM17.4094 21.632C17.4155 21.4839 17.4456 21.4538 17.4862 21.5552C17.5229 21.647 17.5184 21.7567 17.4762 21.7989C17.4339 21.8412 17.4038 21.7661 17.4094 21.632ZM47.5528 21.632C47.5589 21.4839 47.5891 21.4538 47.6297 21.5552C47.6664 21.647 47.6619 21.7567 47.6196 21.7989C47.5774 21.8412 47.5473 21.7661 47.5528 21.632H47.5528ZM17.2969 20.6253C17.2995 20.4155 17.328 20.345 17.3603 20.4688C17.3925 20.5925 17.3904 20.7642 17.3556 20.8503C17.3207 20.9364 17.2943 20.8351 17.2969 20.6253ZM47.7046 20.4346C47.7046 20.1198 47.7294 19.9911 47.7597 20.1484C47.7901 20.3058 47.7901 20.5633 47.7597 20.7207C47.7294 20.878 47.7046 20.7493 47.7046 20.4346ZM47.7046 18.1456C47.7046 17.8309 47.7294 17.7021 47.7597 17.8595C47.7901 18.0168 47.7901 18.2744 47.7597 18.4317C47.7294 18.5891 47.7046 18.4603 47.7046 18.1456ZM17.2969 17.9549C17.2995 17.745 17.328 17.6746 17.3603 17.7983C17.3925 17.922 17.3904 18.0937 17.3556 18.1798C17.3207 18.2659 17.2943 18.1647 17.2969 17.9549ZM47.5629 17.0011C47.5629 16.8263 47.5918 16.7547 47.627 16.8422C47.6623 16.9296 47.6623 17.0727 47.627 17.1601C47.5918 17.2475 47.5629 17.176 47.5629 17.0011ZM17.4094 16.9269C17.4155 16.7788 17.4456 16.7487 17.4862 16.8501C17.5229 16.9419 17.5184 17.0516 17.4762 17.0938C17.4339 17.1361 17.4038 17.061 17.4094 16.9269ZM20.9606 9.30768C21.1249 9.13283 21.2879 8.98977 21.3229 8.98977C21.3579 8.98977 21.2521 9.13283 21.0878 9.30768C20.9235 9.48253 20.7604 9.62559 20.7255 9.62559C20.6905 9.62559 20.7963 9.48253 20.9606 9.30768ZM43.9719 9.27589L43.6636 8.92619L44.0133 9.23447C44.2057 9.40403 44.3631 9.5614 44.3631 9.58417C44.3631 9.68391 44.2601 9.60274 43.9719 9.27589ZM42.5109 7.8135L42.1373 7.40021L42.5507 7.77371C42.936 8.12185 43.0225 8.22678 42.9242 8.22678C42.9024 8.22678 42.7163 8.0408 42.5109 7.8135ZM22.4868 7.7817C22.6511 7.60685 22.8142 7.46379 22.8491 7.46379C22.8841 7.46379 22.7783 7.60685 22.614 7.7817C22.4497 7.95656 22.2867 8.09962 22.2517 8.09962C22.2167 8.09962 22.3225 7.95656 22.4868 7.7817ZM30.0942 4.19782C30.1861 4.16109 30.2958 4.1656 30.338 4.20786C30.3803 4.25012 30.3051 4.28017 30.1711 4.27465C30.0229 4.26854 29.9928 4.23841 30.0942 4.19782ZM34.8002 4.19782C34.892 4.16109 35.0017 4.1656 35.044 4.20786C35.0862 4.25012 35.0111 4.28017 34.877 4.27465C34.7289 4.26854 34.6987 4.23841 34.8002 4.19782ZM31.1053 4.06758C31.2635 4.03717 31.4924 4.03832 31.614 4.07013C31.7356 4.10196 31.6062 4.12685 31.3264 4.12543C31.0466 4.12404 30.9471 4.09798 31.1053 4.06756V4.06758ZM33.5218 4.06758C33.6801 4.03717 33.909 4.03832 34.0306 4.07013C34.1522 4.10196 34.0228 4.12685 33.7429 4.12543C33.4631 4.12404 33.3636 4.09798 33.5218 4.06756V4.06758Z" fill="#6EB1C6"/>
<path d="M30.2968 31.5932L30.0545 31.3071L30.3407 31.5493C30.4981 31.6826 30.6268 31.8113 30.6268 31.8355C30.6268 31.9372 30.5245 31.8621 30.2968 31.5932ZM34.6332 31.625C34.7599 31.4851 34.8921 31.3707 34.9271 31.3707C34.962 31.3707 34.8871 31.4851 34.7604 31.625C34.6338 31.7649 34.5016 31.8793 34.4666 31.8793C34.4316 31.8793 34.5066 31.7649 34.6332 31.625ZM9.3229 27.5558C10.3704 26.5067 11.2562 25.6483 11.2911 25.6483C11.3261 25.6483 10.4976 26.5067 9.45009 27.5558C8.40254 28.6049 7.51684 29.4632 7.48186 29.4632C7.44688 29.4632 8.27535 28.6049 9.3229 27.5558ZM5.96247 29.0075C5.96857 28.8594 5.99871 28.8293 6.03931 28.9307C6.07605 29.0225 6.07153 29.1322 6.02927 29.1745C5.987 29.2167 5.95694 29.1416 5.96247 29.0075ZM5.96247 27.8631C5.96857 27.7149 5.99871 27.6848 6.03931 27.7862C6.07605 27.878 6.07153 27.9877 6.02927 28.03C5.987 28.0722 5.95694 27.9971 5.96247 27.8631ZM8.68696 25.394C9.80457 24.2749 10.7476 23.3593 10.7826 23.3593C10.8176 23.3593 9.93176 24.2749 8.81415 25.394C7.69654 26.513 6.75351 27.4286 6.71853 27.4286C6.68356 27.4286 7.56935 26.513 8.68696 25.394ZM21.1393 26.5066L20.897 26.2205L21.1832 26.4628C21.4521 26.6904 21.5272 26.7928 21.4254 26.7928C21.4013 26.7928 21.2725 26.664 21.1393 26.5066ZM43.7908 26.5384C43.9174 26.3986 44.0496 26.2841 44.0846 26.2841C44.1196 26.2841 44.0446 26.3986 43.918 26.5384C43.7913 26.6783 43.6591 26.7928 43.6242 26.7928C43.5892 26.7928 43.6641 26.6783 43.7908 26.5384ZM21.1514 22.2149C21.278 22.075 21.4102 21.9605 21.4452 21.9605C21.4801 21.9605 21.4052 22.075 21.2785 22.2149C21.1519 22.3547 21.0197 22.4692 20.9847 22.4692C20.9498 22.4692 21.0247 22.3547 21.1514 22.2149ZM43.7787 22.1831L43.5364 21.8969L43.8226 22.1392C44.0915 22.3668 44.1666 22.4692 44.0649 22.4692C44.0407 22.4692 43.9119 22.3404 43.7787 22.1831ZM5.96247 19.8517C5.96857 19.7036 5.99871 19.6734 6.03931 19.7749C6.07605 19.8667 6.07153 19.9764 6.02927 20.0186C5.987 20.0609 5.95694 19.9858 5.96247 19.8517ZM5.96247 18.7072C5.96857 18.5591 5.99871 18.529 6.03931 18.6304C6.07605 18.7222 6.07153 18.8319 6.02927 18.8741C5.987 18.9164 5.95694 18.8413 5.96247 18.7072ZM21.1393 16.3335L20.897 16.0474L21.1832 16.2896C21.4521 16.5173 21.5272 16.6196 21.4254 16.6196C21.4013 16.6196 21.2725 16.4909 21.1393 16.3335ZM43.7908 16.3653C43.9174 16.2254 44.0496 16.111 44.0846 16.111C44.1196 16.111 44.0446 16.2254 43.918 16.3653C43.7913 16.5052 43.6591 16.6196 43.6242 16.6196C43.5892 16.6196 43.6641 16.5052 43.7908 16.3653ZM8.68547 13.1544L6.65196 11.088L8.71876 13.1211C10.6389 15.01 10.8431 15.2208 10.7523 15.2208C10.734 15.2208 9.8039 14.2909 8.68547 13.1544ZM9.4486 11.1198L7.41508 9.05335L9.48189 11.0865C11.402 12.9753 11.6062 13.1862 11.5154 13.1862C11.4971 13.1862 10.567 12.2563 9.4486 11.1198ZM21.1514 12.0417C21.278 11.9018 21.4102 11.7874 21.4452 11.7874C21.4801 11.7874 21.4052 11.9018 21.2785 12.0417C21.1519 12.1816 21.0197 12.296 20.9847 12.296C20.9498 12.296 21.0247 12.1816 21.1514 12.0417ZM43.7787 12.0099L43.5364 11.7238L43.8226 11.966C44.0915 12.1937 44.1666 12.296 44.0649 12.296C44.0407 12.296 43.9119 12.1673 43.7787 12.0099ZM5.96247 10.6959C5.96857 10.5477 5.99871 10.5176 6.03931 10.6191C6.07605 10.7109 6.07153 10.8205 6.02927 10.8628C5.987 10.905 5.95694 10.8299 5.96247 10.6959ZM5.96247 9.55141C5.96857 9.40327 5.99871 9.37314 6.03931 9.47458C6.07605 9.56638 6.07153 9.67606 6.02927 9.71831C5.987 9.76057 5.95694 9.68546 5.96247 9.55141ZM30.3089 6.95514C30.4355 6.81526 30.5677 6.70081 30.6027 6.70081C30.6377 6.70081 30.5627 6.81526 30.4361 6.95514C30.3094 7.09502 30.1772 7.20947 30.1423 7.20947C30.1073 7.20947 30.1822 7.09502 30.3089 6.95514ZM34.6212 6.92335L34.3789 6.63723L34.665 6.87947C34.934 7.10712 35.0091 7.20947 34.9073 7.20947C34.8832 7.20947 34.7544 7.08071 34.6212 6.92335Z" fill="#979D99"/>
<path d="M47.2646 44.6361C47.3564 44.5994 47.4661 44.6039 47.5083 44.6461C47.5506 44.6884 47.4755 44.7184 47.3414 44.7129C47.1932 44.7068 47.1631 44.6767 47.2646 44.6361V44.6361ZM44.3469 43.3559C44.1887 43.1542 44.1932 43.1497 44.3949 43.3079C44.5173 43.4039 44.6175 43.504 44.6175 43.5304C44.6175 43.6351 44.513 43.5677 44.3469 43.3559H44.3469ZM43.8381 42.8473C43.6799 42.6456 43.6844 42.6411 43.8861 42.7993C44.0086 42.8952 44.1087 42.9954 44.1087 43.0218C44.1087 43.1264 44.0043 43.0591 43.8381 42.8473ZM42.7197 40.0708C42.7258 39.9227 42.7559 39.8926 42.7965 39.994C42.8333 40.0858 42.8287 40.1955 42.7865 40.2377C42.7442 40.28 42.7142 40.2049 42.7197 40.0708Z" fill="#606E8B"/>
<path d="M6.01602 28.4459V27.4286H6.39908C6.7244 27.4286 7.0884 27.1219 8.81415 25.394L10.8462 23.3593H15.6172H20.3882V24.3766V25.394H15.9352H11.4821L9.45009 27.4286L7.41807 29.4632H6.71705H6.01602V28.4459ZM27.5372 27.8221C26.5725 27.2781 25.7309 26.7809 25.6672 26.7171C25.5974 26.6473 25.7007 26.3787 25.9268 26.042C26.1334 25.7345 26.3025 25.409 26.3025 25.3188C26.3025 24.943 26.6318 25.0524 28.3001 25.9823C30.4971 27.2069 30.4515 27.1666 30.1192 27.5891C29.9749 27.7724 29.7719 28.126 29.6678 28.3749C29.5638 28.6238 29.4366 28.8237 29.3851 28.8192C29.3335 28.8148 28.502 28.366 27.5372 27.8221ZM35.4015 28.3749C35.2975 28.126 35.0972 27.7759 34.9563 27.597C34.8155 27.418 34.7286 27.2258 34.7632 27.1698C34.7978 27.1139 35.6412 26.626 36.6375 26.0856C37.6338 25.5453 38.4901 25.0805 38.5404 25.0527C38.5908 25.0249 38.718 25.2082 38.8232 25.4599C38.9284 25.7116 39.1325 26.0675 39.2767 26.2508C39.488 26.5194 39.5072 26.6127 39.3754 26.7319C39.2003 26.8903 35.7603 28.8274 35.6541 28.8274C35.6192 28.8274 35.5055 28.6238 35.4015 28.3749ZM31.5172 24.3766V22.2784H32.5347H33.5522V24.3766V26.4749H32.5347H31.5172V24.3766ZM26.244 23.2883C26.14 23.0394 25.9396 22.6894 25.7988 22.5104C25.658 22.3314 25.571 22.1394 25.6054 22.0837C25.73 21.8822 29.3735 19.9223 29.4899 19.9942C29.5556 20.0348 29.6093 20.1419 29.6093 20.2322C29.6093 20.3224 29.7787 20.6481 29.9857 20.9559C30.275 21.386 30.3265 21.5476 30.2083 21.6543C30.0394 21.8067 26.5989 23.7408 26.4966 23.7408C26.4616 23.7408 26.348 23.5372 26.244 23.2883ZM36.6948 22.7355C35.73 22.1915 34.8885 21.6943 34.8247 21.6306C34.7549 21.5608 34.8582 21.2921 35.0844 20.9555C35.2909 20.6479 35.46 20.3224 35.46 20.2322C35.46 19.8607 35.7773 19.9622 37.3291 20.83C39.7538 22.1858 39.5856 22.0562 39.3444 22.3829C39.232 22.5353 39.0247 22.9031 38.8839 23.2004C38.743 23.4976 38.5875 23.7372 38.5383 23.7327C38.4891 23.7282 37.6595 23.2794 36.6948 22.7355ZM22.3596 20.8478V20.3074H14.1878H6.01602V19.2901V18.2728H14.1878H22.3596V17.7323V17.1919H23.3771H24.3946V19.2901V21.3883H23.3771H22.3596V20.8478ZM40.6747 19.2901V17.1919H41.6922H42.7097V19.2901V21.3883H41.6922H40.6747V19.2901ZM27.5372 17.6489C26.5725 17.105 25.7309 16.6077 25.6672 16.544C25.5974 16.4742 25.7007 16.2055 25.9268 15.8689C26.1334 15.5613 26.3025 15.2359 26.3025 15.1456C26.3025 14.7742 26.6198 14.8757 28.1716 15.7434C30.5963 17.0992 30.4281 16.9696 30.1869 17.2964C30.0745 17.4487 29.8672 17.8166 29.7264 18.1138C29.5855 18.4111 29.43 18.6506 29.3808 18.6461C29.3316 18.6416 28.502 18.1929 27.5372 17.6489ZM35.4015 18.2017C35.2975 17.9529 35.0944 17.5993 34.9502 17.416C34.6178 16.9935 34.5723 17.0337 36.7692 15.8091C38.4375 14.8792 38.7669 14.7698 38.7669 15.1456C38.7669 15.2359 38.9345 15.5593 39.1394 15.8643C39.3443 16.1693 39.487 16.4591 39.4566 16.5083C39.3998 16.6002 35.7559 18.6543 35.6497 18.6543C35.6172 18.6543 35.5055 18.4506 35.4015 18.2017ZM31.5172 14.2035V12.1053H32.5347H33.5522V14.2035V16.3017H32.5347H31.5172V14.2035ZM8.81415 13.1862C7.0884 11.4582 6.7244 11.1516 6.39908 11.1516H6.01602V10.1342V9.11693H6.71705H7.41807L9.45009 11.1516L11.4821 13.1862H15.9352H20.3882V14.2035V15.2208H15.6172H10.8462L8.81415 13.1862ZM26.244 13.1152C26.14 12.8663 25.9369 12.5127 25.7926 12.3294C25.4603 11.9069 25.4147 11.9471 27.6117 10.7225C29.28 9.79265 29.6093 9.68327 29.6093 10.059C29.6093 10.1493 29.777 10.4727 29.9819 10.7777C30.1867 11.0827 30.3295 11.3725 30.2991 11.4217C30.2423 11.5136 26.5984 13.5677 26.4922 13.5677C26.4597 13.5677 26.348 13.3641 26.244 13.1152ZM36.6683 12.5447C35.6889 11.991 34.8325 11.5185 34.7652 11.4947C34.6978 11.4709 34.8266 11.1739 35.0513 10.8346C35.2761 10.4954 35.46 10.1452 35.46 10.0564C35.46 9.68784 35.7802 9.79072 37.3291 10.6568C39.7538 12.0126 39.5856 11.883 39.3444 12.2098C39.232 12.3621 39.0247 12.73 38.8839 13.0272C38.743 13.3245 38.5875 13.564 38.5383 13.5595C38.4891 13.5551 37.6476 13.0983 36.6683 12.5447Z" fill="#A6D9D7"/>
</svg>
