<svg width="76" height="38" viewBox="0 0 76 38" fill="none" xmlns="http://www.w3.org/2000/svg">
<path opacity="0.973102" d="M28.7518 18.9053L21.7316 22.7145L14.1748 27.0311L14.1894 19.3225L14.0084 10.9154L21.0139 14.8149L28.7518 18.9053Z" fill="#FEA22D"/>
<path d="M31.6765 13.9724C32.5389 12.6191 33.3869 11.2472 34.2053 9.86357C34.4174 9.50495 35.039 8.82001 35.0058 8.38439C34.9743 7.97141 34.347 7.50435 34.083 7.23715C33.095 6.23708 32.0129 5.33617 30.9002 4.49816C27.0659 1.61059 22.5489 0.166684 17.8585 0.166684C16.4214 0.166684 14.9908 0.165131 13.5889 0.555758C8.42799 1.99425 3.88852 5.52964 1.70086 10.7675C-0.0538388 14.9687 -0.537282 19.9751 0.657952 24.4089C2.5382 31.3838 9.29518 37.6208 16.3059 37.8025C24.8214 38.0234 32.3723 33.9737 37.4301 26.7099C39.3806 23.9085 40.7473 20.7509 42.5207 17.8347C44.5478 14.5015 47.1122 11.5123 50.3075 9.40544C55.0568 6.27393 61.4076 5.30472 65.911 9.53076C66.6573 10.2312 67.3128 11.024 67.8476 11.918C69.403 14.5177 70.1444 17.9036 69.6808 20.9575C68.8851 26.1995 64.4827 30.4736 59.5454 31.1239C54.172 31.8316 48.1914 27.9813 45.0287 23.5871C44.6085 23.9656 44.3658 24.5705 44.0814 25.0663C43.5163 26.0518 42.9497 27.0361 42.3893 28.0247C42.193 28.371 41.5294 29.1619 41.6457 29.5787C41.74 29.9167 42.2369 30.2473 42.467 30.49C43.3019 31.3709 44.2386 32.1593 45.184 32.9035C48.108 35.2057 51.4721 36.7895 55.0429 37.5408C56.4791 37.843 57.9167 38.11 59.3901 37.9541C63.6525 37.503 67.9546 35.5784 70.9539 32.2976C78.0841 24.4979 77.6695 11.2769 69.6372 4.31041C67.8412 2.75272 65.8012 1.55621 63.5821 0.826195C54.4136 -2.18996 44.7732 3.46492 39.2752 11.0962C36.3123 15.2087 34.5346 20.2096 31.2755 24.0802C26.3423 29.9389 17.6085 34.0921 10.9495 28.7105C4.46412 23.4693 4.99905 12.7836 12.0363 8.35185C13.1992 7.61947 14.5043 7.09645 15.8401 6.85879C20.2054 6.08209 24.3979 7.71936 27.8727 10.4778C28.7182 11.1492 29.5158 11.8881 30.2792 12.6608C30.7175 13.1046 31.1208 13.6981 31.6765 13.9724Z" fill="#041623"/>
<path d="M52.0152 17.822C51.8875 18.2701 51.8875 18.9341 52.0152 19.3822C51.564 19.6212 51.1619 20.0463 50.7623 20.3694C50.6052 20.4964 50.3635 20.6305 50.2877 20.8315C50.1788 21.1202 50.4065 21.415 50.5403 21.6482C50.8788 22.238 51.2025 22.8375 51.5346 23.4313C51.6628 23.6605 51.7833 24.0283 52.0511 24.1127C52.2528 24.1763 52.4772 24.0344 52.6595 23.9588C53.091 23.7796 53.6635 23.3931 54.1272 23.3594C54.2767 23.3485 54.4051 23.4865 54.5209 23.5667C54.7727 23.7409 55.0476 23.861 55.3078 24.0181C55.5171 24.1444 55.5179 24.3565 55.5493 24.5828C55.6077 25.0036 55.6573 25.4253 55.7173 25.8459C55.7534 26.0991 55.7617 26.4393 56.0603 26.5042C56.8372 26.6731 57.8067 26.5145 58.6017 26.5145C58.8527 26.5145 59.2899 26.6043 59.4762 26.3903C59.6113 26.235 59.6087 25.9682 59.6352 25.7716C59.6976 25.3065 59.6627 24.5962 59.8701 24.1781C60.0132 23.8897 60.7589 23.5811 61.0359 23.4134C61.2358 23.2924 61.452 23.4406 61.6444 23.5204C62.0152 23.6743 62.3833 23.8346 62.7541 23.9885C62.9194 24.0571 63.1084 24.1702 63.2909 24.1127C63.5587 24.0283 63.6792 23.6606 63.8074 23.4313C64.1395 22.8375 64.4632 22.238 64.8017 21.6482C64.9355 21.415 65.1632 21.1202 65.0543 20.8315C64.9793 20.6325 64.7342 20.4983 64.5797 20.3703C64.1856 20.0437 63.776 19.6201 63.3269 19.3822C63.4545 18.9341 63.4545 18.2701 63.3269 17.822C63.7783 17.5828 64.1802 17.1584 64.5797 16.8348C64.7482 16.6984 64.9999 16.5585 65.07 16.3359C65.1593 16.0528 64.9111 15.7499 64.7845 15.5189C64.4644 14.9346 64.135 14.3559 63.8129 13.7729C63.6921 13.5542 63.5712 13.1955 63.3267 13.1004C63.1188 13.0196 62.872 13.1666 62.6825 13.2454C62.2325 13.4328 61.7288 13.7517 61.2507 13.8384C61.0989 13.8659 60.975 13.7427 60.8569 13.6616C60.5826 13.4733 60.2745 13.3475 59.9999 13.1651C59.8285 13.0512 59.8308 12.8479 59.8037 12.6585C59.7402 12.213 59.6826 11.7666 59.6191 11.3212C59.5834 11.0712 59.5738 10.7631 59.2818 10.7C58.504 10.5321 57.5361 10.6897 56.7403 10.6897C56.4893 10.6897 56.0521 10.5999 55.8659 10.8139C55.7307 10.9692 55.7333 11.236 55.7069 11.4326C55.6444 11.8977 55.6793 12.6081 55.4719 13.0261C55.3988 13.1734 55.2266 13.2231 55.0937 13.294C54.8176 13.4412 54.5725 13.6295 54.3061 13.7908C54.1062 13.9118 53.89 13.7636 53.6976 13.6838C53.3268 13.5299 52.9587 13.3696 52.5879 13.2157C52.4227 13.1471 52.2336 13.034 52.0511 13.0915C51.7833 13.1759 51.6628 13.5437 51.5346 13.7729C51.2025 14.3667 50.8788 14.9662 50.5403 15.556C50.4065 15.7892 50.1788 16.084 50.2877 16.3727C50.3627 16.5717 50.6079 16.7059 50.7623 16.8339C51.1565 17.1605 51.566 17.5841 52.0152 17.822V17.822ZM57.492 15.8266C59.4266 15.589 60.805 17.7738 60.1876 19.5679C59.8209 20.6335 58.8969 21.2489 57.85 21.3776C55.9154 21.6152 54.537 19.4304 55.1544 17.6363C55.5211 16.5707 56.4451 15.9553 57.492 15.8266Z" fill="#A6D9D7"/>
</svg>
