<svg width="62" height="65" viewBox="0 0 62 65" fill="none" xmlns="http://www.w3.org/2000/svg">
<path opacity="0.973102" d="M19.7284 47.0064C18.5032 45.969 15.8039 43.0282 15.4922 42.3912C15.2579 41.9124 15.2906 41.7232 15.9988 39.4668C16.4152 38.1399 17.0342 36.4356 17.3743 35.6794C17.7144 34.9232 18.4797 33.0671 19.0751 31.5547C20.3994 28.1907 23.9666 20.5218 25.438 17.8754C26.0333 16.8046 26.9771 15.2428 27.5353 14.4047C28.8642 12.4093 31.9332 9.06831 33.7584 7.63004C35.282 6.42949 38.9671 4.40483 40.6233 3.85837L41.5967 3.53719L42.8599 4.75092C46.3167 8.07217 57.6655 20.0712 57.6655 20.4048C57.6655 20.8234 55.7919 25.1216 54.9807 26.5639C51.8614 32.1097 47.1604 35.9289 37.3393 40.8958C30.722 44.2424 22.3495 47.7785 21.043 47.7785C20.8215 47.7785 20.2299 47.431 19.7284 47.0064V47.0064ZM43.046 27.4538C44.3274 26.7765 45.2358 25.7681 45.8549 24.3355C46.492 22.8611 46.4889 20.8092 45.8472 19.3239C45.2496 17.9408 44.0192 16.5561 42.8306 15.9293C41.9757 15.4785 41.6815 15.4226 40.1621 15.4226C38.6243 15.4225 38.3544 15.4753 37.448 15.9531C34.0078 17.7664 32.9881 22.3229 35.2873 25.6078C36.6517 27.5571 37.9595 28.1969 40.3748 28.0966C41.7286 28.0405 42.1092 27.9488 43.046 27.4538Z" stroke="#103547" stroke-width="2.27333"/>
<path opacity="0.973102" d="M57.8086 17.2558C55.6783 15.183 43.2881 2.0273 43.2881 1.83813C43.2881 1.65335 46.3776 1.02736 49.3889 0.601991C50.6751 0.4203 53.9009 0.210523 56.5572 0.135821L61.3869 0L61.3853 1.74609C61.378 8.73995 60.3767 18.8623 59.6926 18.8589C59.5621 18.8583 58.7144 18.1368 57.8089 17.2558H57.8086Z" fill="#FFA41D"/>
<path opacity="0.973102" d="M23.5389 58.3193C23.482 58.1602 23.3551 57.0259 23.2568 55.7986C23.1586 54.5714 23.004 52.7519 22.9133 51.7552C22.8001 50.511 22.8045 49.8706 22.9273 49.7117C23.0257 49.5844 23.7757 49.1728 24.594 48.797C25.4123 48.4213 28.5409 46.9197 31.5463 45.4601C34.5518 44.0005 37.113 42.762 37.238 42.7078C37.363 42.6536 37.1565 43.2683 36.7792 44.0739C35.3135 47.2035 32.1615 51.698 29.8013 54.024C27.8508 55.9461 24.3787 58.6086 23.8225 58.6086C23.7234 58.6086 23.5958 58.4784 23.5389 58.3193H23.5389Z" fill="#FFA41D"/>
<path opacity="0.973102" d="M7.71336 39.8512C5.77442 39.6758 4.66849 39.391 4.66849 39.067C4.66849 38.7319 5.60697 37.1832 6.51889 36.0134C8.78975 33.1003 12.2348 29.7191 14.664 28.0193C16.2668 26.8977 20.0373 24.7341 20.0373 24.936C20.0373 25.0107 19.3691 26.4406 18.5524 28.1136C17.7357 29.7866 16.2059 33.1352 15.153 35.5551L13.2385 39.9547L11.3015 39.9776C10.2362 39.9902 8.6215 39.9333 7.71336 39.8512V39.8512Z" fill="#FFA41D"/>
<path opacity="0.973102" d="M38.8235 25.4835C37.6292 25.1405 36.8328 24.1657 36.4603 22.5908C36.1355 21.218 36.4113 20.2624 37.4492 19.1639C38.7131 17.8262 40.1811 17.5 41.6764 18.2244C43.3617 19.041 44.2703 20.9238 43.843 22.7144C43.2838 25.0578 41.2493 26.1801 38.8235 25.4835Z" fill="#A6D9D7"/>
<path opacity="0.973102" d="M3.54236 54.5212L3.543 53.1025L4.91995 51.4068C7.04252 48.7929 9.26097 46.1876 10.6754 44.6479C12.1693 43.0217 12.2131 43.0013 12.817 43.6495C13.2844 44.1512 13.2892 44.3563 12.8488 44.9901C11.7616 46.5544 6.45086 52.8552 4.27461 55.1628L3.54175 55.9399L3.54236 54.5212Z" fill="#103547"/>
<path opacity="0.973102" d="M0.405909 64.8367C-0.0990443 64.5632 -0.125671 64.2765 0.285863 63.5439C0.979031 62.31 2.77656 60.2319 8.52723 54.0159C14.0941 47.9987 15.5957 46.5314 16.1864 46.5314C16.4234 46.5314 16.9804 47.0665 16.9804 47.2943C16.9804 47.7789 14.2386 50.9811 7.68767 58.1477C2.66056 63.6472 1.70406 64.6247 1.07261 64.9079C0.803224 65.0287 0.74996 65.023 0.405909 64.8367V64.8367Z" fill="#103547"/>
<path opacity="0.973102" d="M8.96111 63.4693C8.58989 63.3191 8.10724 62.7119 8.10724 62.395C8.10724 62.0184 13.8381 55.0461 16.6005 52.0617C18.1309 50.4084 18.6786 49.92 19.0023 49.92C19.5425 49.92 19.8933 50.3911 19.7191 50.8829C19.4383 51.6757 17.4136 54.2729 13.5743 58.7652C11.9792 60.6315 9.49564 63.3748 9.30259 63.4835C9.23215 63.5232 9.07848 63.5168 8.96111 63.4693V63.4693Z" fill="#103547"/>
</svg>
