<svg width="38" height="37" viewBox="0 0 38 37" fill="none" xmlns="http://www.w3.org/2000/svg">
<path d="M12.1193 36.6601C9.48404 35.61 7.36067 34.193 5.37636 32.1604C2.0541 28.7573 0.209575 24.4495 0.0145929 19.6383C-0.167055 15.1561 1.35381 10.5916 4.20263 7.06889C4.98113 6.10624 6.59071 4.54578 7.53585 3.83741C14.562 -1.42865 24.2199 -1.25915 31.0195 4.24954C31.9204 4.97936 33.5004 6.60889 34.1639 7.49244C35.7604 9.61839 36.9122 12.0505 37.5103 14.5586C37.8926 16.1621 37.9989 17.1114 38 18.9338C38.002 22.1923 37.386 24.7749 35.9215 27.6485C34.9768 29.5021 33.8495 31.0101 32.2352 32.5796C30.3524 34.4102 28.331 35.7099 25.8795 36.6663C24.7931 37.0901 24.3935 37.1057 24.0256 36.7387C23.8856 36.599 23.7716 36.4088 23.7701 36.3123C23.7684 36.2164 23.7593 34.7198 23.7498 32.9864C23.7332 29.9907 23.7243 29.8061 23.5684 29.2545C23.382 28.5946 23.1175 28.0729 22.7554 27.6508L22.506 27.3601L22.8607 27.3117C23.6433 27.2048 25.0336 26.9009 25.5943 26.7143C29.4287 25.4381 31.2613 22.465 31.112 17.7628C31.0802 16.7601 31.0416 16.4502 30.8791 15.8934C30.6255 15.0244 30.1152 14.0113 29.6168 13.3874L29.2188 12.889L29.3635 12.389C29.5477 11.752 29.6197 10.35 29.5037 9.65772C29.4565 9.37585 29.3298 8.85325 29.2222 8.49638L29.0265 7.84751H28.4891C27.5018 7.84751 26.1057 8.36832 24.5328 9.32334L23.7691 9.78704L23.1206 9.63786C21.6399 9.29719 20.9086 9.2222 19.0532 9.22077C17.1762 9.2194 16.5708 9.27736 15.0944 9.60035L14.2571 9.78349L13.4964 9.32157C11.9265 8.36838 10.5296 7.84753 9.54304 7.84753H9.00563L8.80993 8.49639C8.70231 8.85327 8.57561 9.37587 8.52836 9.65773C8.41237 10.35 8.48437 11.752 8.66863 12.389L8.81328 12.889L8.4127 13.3901C7.92674 13.998 7.42372 14.9941 7.14846 15.8934C6.95141 16.5373 6.94424 16.6198 6.94488 18.2294C6.94548 19.6629 6.96821 20.0023 7.10693 20.6394C7.32772 21.6541 7.52106 22.2278 7.90671 23.0126C9.02162 25.2815 11.1759 26.6525 14.5079 27.2138L15.5109 27.3828L15.2484 27.6727C14.9172 28.0385 14.5866 28.7387 14.4292 29.4079C14.3077 29.9242 14.306 29.9266 13.9674 30.0459C11.7725 30.8192 10.0984 30.2864 8.86291 28.4214C8.04201 27.1823 7.04361 26.4776 6.00387 26.4033C5.19588 26.3457 4.88643 26.5493 5.12009 26.9849C5.16246 27.0639 5.46719 27.3174 5.79723 27.5481C6.62342 28.1257 7.09772 28.7271 7.72024 29.9863C8.29057 31.14 8.61249 31.5385 9.36739 32.0253C10.0322 32.454 10.8565 32.6959 11.8174 32.7443C12.5141 32.7794 13.8691 32.675 14.1596 32.5637C14.2414 32.5324 14.2593 32.8788 14.2593 34.4975V36.4694L14.0474 36.706C13.8622 36.9128 13.7801 36.9459 13.397 36.9686C13.0168 36.9908 12.8473 36.9502 12.1193 36.6601L12.1193 36.6601Z" fill="white"/>
</svg>
