<svg width="39" height="36" viewBox="0 0 39 36" fill="none" xmlns="http://www.w3.org/2000/svg">
<path d="M3.12963 35.9303C1.69487 35.6705 0.355399 34.4104 0.0800416 33.0614C-0.0266805 32.5386 -0.0266805 3.47084 0.0800416 2.94802C0.361621 1.56857 1.69884 0.333885 3.19285 0.0739001C3.75909 -0.0246334 35.2409 -0.0246334 35.8072 0.0739001C37.3012 0.333886 38.6384 1.56857 38.92 2.94802C39.0267 3.47084 39.0267 32.5386 38.92 33.0614C38.6384 34.4409 37.3012 35.6756 35.8072 35.9356C35.294 36.0249 3.62373 36.0197 3.12963 35.9303V35.9303ZM11.7316 22.5053V14.4183H8.79935H5.86714V22.5053V30.5922H8.79935H11.7316V22.5053ZM21.4978 25.5115L21.5183 20.4308L21.7534 19.9737C22.3166 18.8786 23.6159 18.2202 24.8122 18.4237C25.7709 18.5868 26.576 19.1585 26.9953 19.9737L27.2304 20.4308L27.2509 25.5115L27.2714 30.5922H30.2021H33.1329L33.1323 25.1951C33.1319 21.7837 33.1024 19.6314 33.0522 19.3454C32.6409 17.0051 30.6173 14.931 28.1062 14.2761C27.3702 14.0841 26.067 14.016 25.423 14.1358C24.7852 14.2544 23.7664 14.6541 23.1458 15.029C22.6904 15.3042 22.0575 15.8458 21.6407 16.317L21.4852 16.4928L21.4827 15.4556L21.4802 14.4183H18.548H15.6158V22.5053V30.5922H18.5465H21.4773L21.4978 25.5115ZM9.67232 11.2194C12.225 10.6087 13.1348 7.59757 11.2896 5.86676C10.1846 4.83031 8.61749 4.58958 7.19427 5.23769C5.42372 6.04397 4.75097 8.15709 5.75913 9.74548C6.02105 10.1581 6.65017 10.7326 7.04679 10.9213C7.87493 11.3152 8.82237 11.4228 9.67232 11.2194V11.2194Z" fill="white"/>
</svg>
