<?xml version="1.0" encoding="UTF-8" standalone="no"?>
<svg
   xmlns:dc="http://purl.org/dc/elements/1.1/"
   xmlns:cc="http://creativecommons.org/ns#"
   xmlns:rdf="http://www.w3.org/1999/02/22-rdf-syntax-ns#"
   xmlns:svg="http://www.w3.org/2000/svg"
   xmlns="http://www.w3.org/2000/svg"
   width="210mm"
   height="297mm"
   viewBox="0 0 210 297"
   version="1.1"
   id="svg23">
  <defs
     id="defs17" />
  <metadata
     id="metadata20">
    <rdf:RDF>
      <cc:Work
         rdf:about="">
        <dc:format>image/svg+xml</dc:format>
        <dc:type
           rdf:resource="http://purl.org/dc/dcmitype/StillImage" />
        <dc:title></dc:title>
      </cc:Work>
    </rdf:RDF>
  </metadata>
  <g
     id="layer1">
    <g
       id="g858"
       transform="translate(-42.068122,-32.827499)"
       style="fill:#ffffff">
      <path
         style="fill:#ffffff;stroke-width:0.261349"
         d="m 54.283577,165.23749 c -5.011163,-0.94851 -9.689515,-5.5496 -10.651251,-10.47532 -0.372747,-1.90904 -0.372747,-108.048056 0,-109.957107 0.983469,-5.036958 5.653952,-9.545326 10.87205,-10.494644 1.977701,-0.359788 111.933704,-0.359788 113.911404,0 5.21811,0.949321 9.8886,5.457686 10.87206,10.494644 0.37266,1.909062 0.37266,108.048057 0,109.957107 -0.98342,5.03696 -5.65395,9.54533 -10.87206,10.49465 -1.79228,0.32605 -112.406467,0.30731 -114.132203,-0.0193 z m 30.043784,-49.0204 V 86.688202 H 74.08609 63.844819 v 29.528888 29.52888 H 74.08609 84.327361 Z m 34.110289,10.97704 0.0717,-18.55184 0.82105,-1.66903 c 1.96711,-3.99887 6.50533,-6.40299 10.68369,-5.65972 3.34841,0.59564 6.16025,2.68283 7.62469,5.65972 l 0.82107,1.66903 0.0724,18.55185 0.0724,18.55184 h 10.23601 10.23616 l -0.002,-19.70733 c -10e-4,-12.45629 -0.10402,-20.31524 -0.27972,-21.35956 -1.43635,-8.545424 -8.50418,-16.118841 -17.27474,-18.510464 -2.57051,-0.700945 -7.12215,-0.949714 -9.37165,-0.512206 -2.22746,0.433239 -5.78587,1.892511 -7.95332,3.261584 -1.59075,1.004818 -3.80129,2.982464 -5.25688,4.703061 l -0.54306,0.641944 -0.009,-3.787401 -0.009,-3.787402 H 108.135 97.893721 v 29.528884 29.52889 h 10.236159 10.23616 z M 77.135105,75.007551 c 8.915819,-2.230121 12.093443,-13.224959 5.648682,-19.544899 -3.85928,-3.784537 -9.33287,-4.663533 -14.303699,-2.297011 -6.183977,2.94408 -8.533685,10.659995 -5.012491,16.459887 0.914772,1.506757 3.112091,3.604339 4.497384,4.293252 2.892423,1.438408 6.201526,1.83132 9.170124,1.088771 z"
         id="path157" />
    </g>
  </g>
</svg>
