<svg width="39" height="39" viewBox="0 0 39 39" fill="none" xmlns="http://www.w3.org/2000/svg">
<path d="M7.04452 38.9209C6.31436 38.8128 5.55849 38.5674 5.4167 38.3923C5.24483 38.1802 5.18476 37.9214 5.24773 37.6646C5.28087 37.5294 5.86766 36.8944 6.93027 35.8438L8.56193 34.2307V33.4276V32.6245L7.72353 31.7767L6.88512 30.9289H6.0956H5.30607L3.71529 32.5836C2.11433 34.2488 1.92786 34.3955 1.53856 34.2965C1.17411 34.2037 1.04019 34.005 0.855146 33.2825C0.290862 31.0794 0.744408 28.6933 2.07162 26.8827C3.1773 25.3743 4.8187 24.3095 6.66419 23.9035C7.26595 23.7711 8.84259 23.7717 9.5163 23.9046L10.0614 24.0121L12.8117 21.223L15.5621 18.4339L10.9763 13.7383L6.39062 9.0428H5.38879C4.66429 9.0428 4.32983 9.01284 4.18057 8.93457C4.02827 8.8547 3.54204 8.09312 2.32493 6.02805C1.41784 4.48899 0.655376 3.14773 0.630562 3.04748C0.605753 2.94723 0.609241 2.78634 0.638325 2.68995C0.703465 2.47403 2.86123 0.244459 3.15812 0.0863002C3.28793 0.017147 3.46011 -0.0105666 3.59278 0.0163428C3.71362 0.0408448 5.05156 0.815844 6.56597 1.73855C8.56515 2.95662 9.34822 3.47261 9.42443 3.62206C9.49934 3.76897 9.5294 4.11539 9.5294 4.83186V5.83581L14.1435 10.5145L18.7577 15.1932L21.5242 12.3877L24.2907 9.58225L24.1847 9.02951C24.0533 8.34424 24.0524 6.74453 24.183 6.13723C25.1153 1.80506 29.2799 -0.847372 33.4323 0.246337C34.1447 0.433987 34.3407 0.569797 34.4321 0.939381C34.5285 1.32879 34.3785 1.53028 32.7806 3.15839L31.1858 4.78319V5.57464V6.36609L32.0242 7.2139L32.8626 8.0617H33.6164H34.3702L35.9595 6.40596C37.5609 4.7376 37.7429 4.59443 38.1348 4.69417C38.4998 4.78708 38.6331 4.9854 38.8194 5.71305C38.9715 6.30668 39 6.59608 39 7.54494C39 9.16604 38.8093 9.9666 38.1101 11.2812C36.9821 13.4019 34.8843 14.8387 32.4517 15.1565C31.7298 15.2509 31.0295 15.2238 30.12 15.0666L29.6124 14.9788L27.388 17.2336L25.1637 19.4884L25.7002 19.9943L26.2368 20.5003L26.4601 20.2922C27.0299 19.7611 27.3779 19.6971 27.7546 20.0539C28.1021 20.383 28.0803 20.7613 27.6879 21.2133L27.3902 21.5564L32.6963 26.4949C38.2361 31.6509 38.3577 31.7766 38.7575 32.7649C38.9178 33.1611 38.9513 33.3832 38.981 34.25C39.0137 35.2051 39.0034 35.3071 38.8171 35.8697C38.3558 37.2633 37.3583 38.2753 35.985 38.7427C34.5501 39.2312 32.9542 38.9602 31.8045 38.0328C31.6075 37.8739 29.2878 35.3647 26.6496 32.4568L21.8528 27.1697L21.5323 27.4558C21.0681 27.8702 20.7041 27.9013 20.3633 27.5558C20.2178 27.4082 20.1715 27.2844 20.1715 27.0426C20.1715 26.7771 20.2223 26.6654 20.4758 26.3733L20.7802 26.0227L20.4833 25.6646C20.32 25.4676 20.0981 25.2229 19.9901 25.1208L19.7938 24.9352L17.5882 27.1718L15.3826 29.4084L15.4886 29.9611C15.6201 30.6464 15.621 32.2461 15.4903 32.8534C14.6293 36.8545 10.9486 39.4987 7.04453 38.9209H7.04452ZM9.647 37.2668C11.6901 36.7369 13.3711 35.0254 13.9347 32.9014C14.1636 32.0388 14.1602 30.812 13.9262 29.8454C13.7525 29.128 13.7507 29.0929 13.8751 28.8587C14.0794 28.4738 28.9553 13.4379 29.1886 13.3803C29.3062 13.3514 29.6542 13.4021 30.0445 13.5053C30.9144 13.7352 32.216 13.7375 33.0514 13.5107C35.1391 12.9438 36.8427 11.2183 37.3669 9.13972C37.5331 8.48079 37.6286 7.48899 37.5546 7.19008C37.5045 6.98774 37.4659 7.01913 36.2188 8.2764L34.9345 9.57108H33.6112C32.3948 9.57108 32.2706 9.55853 32.0729 9.41578C31.9546 9.33036 31.3717 8.73565 30.7776 8.0942L29.6974 6.92793V5.5681V4.20826L30.9213 2.91366C31.5945 2.20163 32.1283 1.59134 32.1077 1.55746C31.9955 1.37347 30.2271 1.60097 29.4565 1.89852C27.6449 2.59804 26.2498 4.16746 25.7405 6.07884C25.5121 6.9357 25.5135 8.24695 25.7437 9.14371C25.8452 9.53927 25.8953 9.89241 25.8667 10.0116C25.81 10.2482 10.9829 25.3337 10.6034 25.5409C10.3724 25.6671 10.3378 25.6652 9.63035 25.4891C8.67978 25.2524 7.46976 25.2492 6.61684 25.481C4.6719 26.0097 3.1092 27.4732 2.43178 29.4003C2.21925 30.005 2.02952 31.4406 2.11601 31.7897C2.1698 32.0068 2.18277 31.9964 3.4546 30.7142L4.73886 29.4196H6.10637H7.47389L8.7621 30.7259L10.0503 32.0323V33.4191V34.8058L8.77791 36.1038C7.93054 36.9682 7.539 37.4171 7.60578 37.4475C7.79031 37.5315 9.05964 37.4192 9.64697 37.2668L9.647 37.2668ZM12.5005 26.9349C12.0927 26.5213 12.2862 25.8318 12.8504 25.6882C13.1501 25.6119 13.5633 25.8583 13.6841 26.1854C13.9531 26.9139 13.0462 27.4882 12.5005 26.9349ZM14.8151 24.9101C14.451 24.7244 14.3057 24.3277 14.4718 23.9728C14.6475 23.5972 24.1006 14.0548 24.3571 13.9941C24.6789 13.9179 25.0699 14.1235 25.1989 14.4368C25.2632 14.5926 25.2893 14.7906 25.2615 14.9112C25.2032 15.1643 15.7962 24.7555 15.4365 24.9286C15.1409 25.0708 15.1293 25.0705 14.8151 24.9101V24.9101ZM26.3643 13.2309C26.0828 13.1068 25.8735 12.6936 25.9453 12.4034C26.0852 11.8381 26.7677 11.6449 27.1729 12.0558C27.5636 12.452 27.4224 13.0702 26.8947 13.2737C26.6655 13.3621 26.6614 13.3617 26.3643 13.2309V13.2309ZM35.0979 37.4127C36.6705 37.1206 37.7828 35.5325 37.5134 33.9641C37.4239 33.4427 37.161 32.8428 36.8647 32.4839C36.7655 32.3637 34.3518 30.0956 31.5009 27.4437L26.3175 22.6222L24.6212 24.3412C23.6882 25.2867 22.9333 26.0815 22.9436 26.1074C22.9741 26.1842 32.237 36.3776 32.5235 36.6497C32.9007 37.0079 33.3893 37.2677 33.9022 37.3827C34.4701 37.51 34.5621 37.5123 35.0979 37.4127V37.4127ZM30.1952 31.0987C28.1139 28.9949 26.6614 27.4689 26.5974 27.3188C26.3851 26.821 26.7264 26.3253 27.2814 26.3253C27.5278 26.3253 27.6633 26.4357 28.9399 27.6767C29.7045 28.42 31.3263 30.044 32.5441 31.2857C34.7511 33.5361 34.7581 33.5442 34.7581 33.8645C34.7581 34.3184 34.4531 34.6269 34.0044 34.6269H33.6857L30.1952 31.0987ZM23.5385 23.2506C24.4291 22.3481 25.1578 21.5909 25.1578 21.5679C25.1578 21.5449 24.9202 21.3103 24.6299 21.0467L24.1019 20.5674L22.5089 22.1816C21.6327 23.0694 20.9158 23.8203 20.9158 23.8503C20.9158 23.919 21.8094 24.8914 21.8726 24.8914C21.8982 24.8914 22.6479 24.153 23.5385 23.2506V23.2506ZM12.9613 11.4211C10.3455 8.76404 8.16832 6.51586 8.12314 6.4252C8.07685 6.33233 8.04006 5.85451 8.03888 5.33089L8.03691 4.40143L6.16748 3.26939C5.1393 2.64677 4.14218 2.04503 3.95167 1.93219L3.60528 1.72703L2.9603 2.38501L2.31533 3.04298L3.63398 5.288L4.95264 7.53303L5.86799 7.53322C6.52008 7.53335 6.84114 7.56457 6.9843 7.64174C7.09483 7.70133 9.3114 9.90846 11.91 12.5465L16.6348 17.3429L17.1761 16.7976L17.7175 16.2522L12.9614 11.4211L12.9613 11.4211Z" fill="#041623"/>
<path opacity="0.973102" d="M33.83 37.2901C33.5961 37.2117 33.2545 37.0682 33.0709 36.9711C32.8872 36.874 31.047 34.9374 28.9814 32.6674C26.9158 30.3975 24.7252 27.9915 24.1134 27.3209L23.001 26.1016L24.64 24.4369C25.5415 23.5213 26.3035 22.7724 26.3335 22.7726C26.3935 22.7728 34.8182 30.6107 36.1555 31.9102C37.1853 32.911 37.439 33.4168 37.4391 34.47C37.4391 35.2783 37.3048 35.6421 36.7347 36.3779C36.132 37.1557 34.7368 37.5938 33.83 37.2901ZM34.5665 34.4624C34.8358 34.1893 34.8822 33.7985 34.6841 33.4719C34.389 32.9853 27.9034 26.5241 27.5655 26.3801C26.952 26.1185 26.3219 26.6252 26.504 27.2337C26.5415 27.3593 28.1558 29.0752 30.0912 31.0469C33.4516 34.4701 33.628 34.6317 34.0049 34.6317C34.222 34.6317 34.4747 34.5555 34.5665 34.4624V34.4624Z" fill="#FEA22D"/>
<path opacity="0.973102" d="M11.8237 12.371C8.34696 8.89373 6.95674 7.57009 6.73384 7.52488C6.56517 7.49067 6.10434 7.46268 5.70979 7.46268H4.99241L3.68599 5.24649L2.37958 3.0303L2.95399 2.44046C3.26992 2.11605 3.58758 1.86405 3.65991 1.88046C3.73223 1.89686 4.7228 2.46822 5.86117 3.15014L7.93094 4.39L7.93655 4.77848C7.93964 4.99215 7.97406 5.47645 8.01305 5.8547L8.08393 6.54243L12.848 11.4028L17.6121 16.2632L17.1586 16.7146C16.9092 16.9628 16.683 17.1634 16.656 17.1604C16.629 17.1574 14.4544 15.0022 11.8237 12.371Z" fill="#A6D9D7"/>
<path opacity="0.973102" d="M21.3888 24.2792L20.9713 23.8457L22.5294 22.2656L24.0875 20.6856L24.5732 21.0892C24.9555 21.4069 25.0383 21.5314 24.9623 21.6743C24.8294 21.9238 22.0203 24.7128 21.9018 24.7128C21.8493 24.7128 21.6184 24.5177 21.3888 24.2792V24.2792Z" fill="#A6D9D7"/>
<path opacity="0.973102" d="M7.81696 37.2612C7.87793 37.1492 8.40947 36.5732 8.99815 35.9814L10.0685 34.9053V33.4461V31.987L8.76457 30.6679L7.46067 29.3488H6.0817H4.70273L3.44028 30.6156L2.17783 31.8824L2.23069 30.966C2.29634 29.828 2.58321 28.9796 3.22519 28.0247C3.85573 27.0868 4.48881 26.536 5.55006 26.002C6.85331 25.3462 8.00605 25.2059 9.4837 25.5233C9.89299 25.6112 10.3192 25.6832 10.4308 25.6832C10.6348 25.6832 20.1376 16.1628 24.0215 12.0674L25.9426 10.0415L25.7527 8.81279C25.5918 7.77237 25.5816 7.45512 25.6861 6.74307C26.0569 4.21486 28.0471 2.14349 30.538 1.69345C31.4626 1.5264 31.9695 1.49419 31.9695 1.60249C31.9695 1.64075 31.4432 2.24229 30.8 2.93926L29.6305 4.20647L29.6341 5.592L29.6376 6.97752L30.844 8.27128L32.0505 9.56504L33.5148 9.60066L34.9791 9.63628L36.2385 8.36249L37.4979 7.0887L37.4962 7.67999C37.4898 10.0866 35.8563 12.3824 33.5109 13.2813C32.6237 13.6213 31.231 13.6902 30.0776 13.4512L29.1959 13.2685L27.4197 14.9929C26.4428 15.9413 22.9715 19.4344 19.7057 22.7553L13.7678 28.7934L13.8322 29.3676C13.8677 29.6834 13.9255 30.4861 13.9607 31.1513C14.0412 32.6725 13.8315 33.4726 13.0362 34.6785C11.9693 36.2961 10.4628 37.1895 8.46545 37.3891C7.74178 37.4614 7.7112 37.4554 7.81682 37.2612H7.81696ZM13.5435 26.9581C13.9777 26.5444 13.764 25.8775 13.1238 25.6482C12.673 25.4868 12.1103 26.095 12.2572 26.585C12.4435 27.2063 13.087 27.393 13.5435 26.9581V26.9581ZM20.4058 20.0786C24.9731 15.425 25.2716 15.0976 25.2716 14.7418C25.2716 14.2724 24.9615 13.9315 24.5344 13.9315C24.2666 13.9315 23.6408 14.5143 20.1064 18.0554C15.5999 22.5703 14.3211 23.9475 14.3211 24.2856C14.3211 24.6327 14.789 25.0363 15.1915 25.0363C15.5096 25.0363 15.9633 24.6049 20.4058 20.0786V20.0786ZM27.1178 13.169C27.4797 12.8803 27.5026 12.3138 27.1652 11.995C26.4243 11.295 25.4534 12.4006 26.1705 13.1278C26.4893 13.4511 26.7499 13.4624 27.1178 13.169Z" fill="#A6D9D7"/>
<path d="M9.94931 21.3611C9.86863 21.352 9.62345 21.3259 9.40447 21.303C8.33419 21.1913 7.10624 20.845 6.07816 20.3648C4.92093 19.8244 4.14772 19.3045 3.24913 18.4629C2.27443 17.55 1.68139 16.7665 1.08223 15.6C0.548072 14.56 0.212517 13.491 0.0508908 12.3144C-0.0169636 11.8205 -0.0169636 10.309 0.0508908 9.815C0.315208 7.89084 1.12222 6.05889 2.35067 4.59441C2.78965 4.07108 3.69726 3.22278 4.23021 2.83768C5.73076 1.75341 7.51091 1.0585 9.40447 0.817834C9.918 0.752566 11.4894 0.752566 12.0029 0.817834C13.1741 0.966689 14.3178 1.29221 15.3292 1.7646C16.4865 2.30507 17.2597 2.82489 18.1583 3.6665C19.133 4.5794 19.726 5.36294 20.3252 6.52946C20.8593 7.56942 21.1949 8.6384 21.3565 9.815C21.4244 10.309 21.4244 11.8205 21.3565 12.3144C21.0922 14.2386 20.2852 16.0705 19.0567 17.535C18.6177 18.0583 17.7101 18.9067 17.1772 19.2917C15.6894 20.3668 13.8853 21.0745 12.0448 21.3052C11.6773 21.3512 10.2091 21.3904 9.94931 21.3611V21.3611ZM11.9221 19.4276C15.7821 18.9097 18.8595 15.9496 19.3978 12.2367C19.4834 11.6468 19.4834 10.4826 19.3978 9.8927C19.2185 8.65565 18.7326 7.43105 18.0156 6.40852C17.6462 5.88184 17.6003 5.82397 17.5515 5.82397C17.5027 5.82397 5.25534 17.6046 5.25534 17.6515C5.25534 17.6985 5.3153 17.7426 5.86305 18.098C6.90419 18.7735 8.19166 19.2513 9.43867 19.425C10.0079 19.5042 11.3403 19.5056 11.9221 19.4275V19.4276ZM10.0226 10.4097C13.3938 7.16699 16.152 4.49772 16.152 4.47797C16.152 4.4309 16.0921 4.38684 15.5443 4.03145C14.4824 3.34241 13.2389 2.88549 11.9324 2.70423C11.3094 2.61779 10.098 2.61779 9.47496 2.70423C5.59894 3.24199 2.57108 6.15448 2.01201 9.8828C1.92215 10.4821 1.92215 11.6473 2.01201 12.2466C2.17844 13.3565 2.57801 14.4493 3.15356 15.3688C3.42689 15.8055 3.79848 16.304 3.85129 16.3048C3.87431 16.305 6.6514 13.6524 10.0226 10.4097V10.4097Z" fill="#B70072"/>
</svg>
