<svg width="56" height="56" viewBox="0 0 56 56" fill="none" xmlns="http://www.w3.org/2000/svg">
<path d="M10.1152 55.8864C9.06677 55.7312 7.98142 55.3788 7.77781 55.1274C7.53104 54.8228 7.44478 54.4513 7.5352 54.0825C7.58278 53.8884 8.42536 52.9766 9.95115 51.4681L12.294 49.1517V47.9986V46.8455L11.0902 45.6281L9.88632 44.4108H8.75264H7.61896L5.33477 46.7867C3.03596 49.1778 2.7682 49.3885 2.20921 49.2462C1.68589 49.113 1.4936 48.8277 1.22789 47.7903C0.41764 44.6268 1.06889 41.2006 2.97463 38.6008C4.56227 36.4349 6.91915 34.906 9.56909 34.323C10.4332 34.1329 12.697 34.1337 13.6644 34.3246L14.4471 34.479L18.3963 30.4741L22.3455 26.4692L15.7609 19.7268L9.17627 12.9845H7.73774C6.69744 12.9845 6.21718 12.9415 6.00287 12.8291C5.78417 12.7144 5.086 11.6209 3.33835 8.65566C2.03587 6.44572 0.941045 4.51982 0.905414 4.37587C0.869792 4.23191 0.874799 4.00089 0.916561 3.86249C1.0101 3.55246 4.10842 0.351019 4.53473 0.123918C4.72112 0.0246213 4.96836 -0.0151726 5.15886 0.0234666C5.33238 0.0586489 7.25351 1.17147 9.42806 2.49639C12.2987 4.24541 13.4231 4.98631 13.5325 5.20091C13.6401 5.41186 13.6832 5.90927 13.6832 6.93806V8.37962L20.3087 15.0977L26.9341 21.8159L30.9065 17.7875L34.8789 13.7591L34.7267 12.9655C34.538 11.9815 34.5367 9.68445 34.7243 8.81243C36.063 2.59189 42.0429 -1.21674 48.0053 0.353714C49.0283 0.62316 49.3097 0.81817 49.441 1.34886C49.5794 1.908 49.3641 2.19733 47.0695 4.53512L44.7796 6.86816V8.00461V9.14106L45.9835 10.3584L47.1873 11.5758H48.2697H49.352L51.6341 9.19831C53.9336 6.8027 54.1949 6.59712 54.7576 6.74035C55.2818 6.87376 55.4731 7.15853 55.7407 8.20335C55.959 9.05575 56 9.47129 56 10.8338C56 13.1615 55.7262 14.311 54.7222 16.1986C53.1025 19.2438 50.0902 21.3068 46.5973 21.7632C45.5607 21.8987 44.5552 21.8599 43.2493 21.6341L42.5204 21.508L39.3264 24.7457L36.1324 27.9833L36.9029 28.7098L37.6734 29.4363L37.994 29.1376C38.8122 28.3749 39.3119 28.2829 39.8527 28.7953C40.3517 29.268 40.3205 29.811 39.757 30.4601L39.3294 30.9527L46.9486 38.0439C54.9031 45.4474 55.0777 45.6279 55.6518 47.047C55.882 47.6159 55.93 47.9349 55.9727 49.1795C56.0197 50.5509 56.0049 50.6973 55.7374 51.5052C55.075 53.5063 53.6427 54.9593 51.6708 55.6306C49.6104 56.332 47.3188 55.9428 45.668 54.6113C45.3851 54.383 42.0542 50.7801 38.266 46.6046L31.3784 39.013L30.9182 39.4238C30.2516 40.0188 29.7289 40.0634 29.2396 39.5672C29.0306 39.3553 28.9642 39.1777 28.9642 38.8304C28.9642 38.4492 29.0372 38.2887 29.4012 37.8693L29.8382 37.3659L29.4119 36.8517C29.1775 36.5689 28.8588 36.2175 28.7038 36.0709L28.4218 35.8043L25.2549 39.0159L22.0879 42.2275L22.2401 43.0211C22.4288 44.0051 22.4301 46.3021 22.2425 47.1741C21.0061 52.9193 15.7211 56.7161 10.1152 55.8864H10.1152ZM13.8521 53.5113C16.7858 52.7504 19.1996 50.2929 20.0088 47.243C20.3375 46.0044 20.3326 44.2428 19.9966 42.855C19.7472 41.8249 19.7446 41.7744 19.9231 41.4381C20.2166 40.8855 41.5769 19.2954 41.9119 19.2128C42.0807 19.1712 42.5804 19.2441 43.1408 19.3922C44.3899 19.7223 46.2589 19.7257 47.4585 19.4C50.4561 18.586 52.9023 16.1084 53.655 13.1237C53.8937 12.1775 54.0308 10.7534 53.9245 10.3242C53.8526 10.0337 53.7972 10.0787 52.0064 11.8841L50.1623 13.7431H48.2622C46.5157 13.7431 46.3372 13.7251 46.0534 13.5201C45.8835 13.3974 45.0466 12.5435 44.1935 11.6224L42.6425 9.9478V7.99522V6.04263L44.3999 4.18371C45.3664 3.16131 46.133 2.285 46.1033 2.23635C45.9423 1.97216 43.4031 2.29882 42.2965 2.72608C39.6952 3.73053 37.692 5.98405 36.9607 8.72859C36.6328 9.95896 36.6348 11.8418 36.9653 13.1294C37.1111 13.6974 37.1829 14.2045 37.1419 14.3756C37.0605 14.7153 15.7703 36.3765 15.2253 36.6742C14.8937 36.8553 14.844 36.8526 13.8282 36.5997C12.4633 36.2599 10.7258 36.2553 9.5011 36.5882C6.70836 37.3473 4.46449 39.4486 3.49178 42.2159C3.1866 43.0841 2.91417 45.1454 3.03837 45.6467C3.11561 45.9585 3.13423 45.9435 4.96044 44.1025L6.80452 42.2435H8.76812H10.7317L12.5815 44.1193L14.4312 45.9951V47.9863V49.9776L12.6042 51.8414C11.3874 53.0826 10.8252 53.7271 10.9211 53.7707C11.1861 53.8914 13.0087 53.7301 13.8521 53.5113L13.8521 53.5113ZM17.9494 38.6757C17.3639 38.0819 17.6417 37.0918 18.4518 36.8856C18.8822 36.7761 19.4755 37.1299 19.6489 37.5995C20.0353 38.6457 18.733 39.4703 17.9494 38.6757ZM21.273 35.7684C20.7502 35.5016 20.5415 34.9321 20.78 34.4225C21.0324 33.8831 34.606 20.1813 34.9743 20.0941C35.4363 19.9846 35.9977 20.2799 36.1831 20.7297C36.2753 20.9535 36.3128 21.2378 36.2729 21.4109C36.1892 21.7743 22.6818 35.5463 22.1652 35.7949C21.7408 35.9991 21.7242 35.9986 21.273 35.7684V35.7684ZM37.8565 18.9981C37.4521 18.82 37.1517 18.2266 37.2548 17.81C37.4557 16.9983 38.4356 16.7208 39.0175 17.3109C39.5785 17.8799 39.3758 18.7675 38.618 19.0597C38.2889 19.1866 38.283 19.1861 37.8565 18.9981ZM50.397 53.7209C52.655 53.3014 54.2522 51.0211 53.8655 48.7689C53.7369 48.0203 53.3594 47.1589 52.934 46.6435C52.7915 46.4709 49.3257 43.2142 45.2321 39.4064L37.7893 32.4831L35.3535 34.9515C34.0138 36.3091 32.9299 37.4503 32.9447 37.4875C32.9885 37.5978 46.2891 52.2345 46.7004 52.6252C47.242 53.1396 47.9436 53.5126 48.6801 53.6777C49.4955 53.8605 49.6276 53.8638 50.397 53.7209ZM43.3572 44.6546C40.3686 41.6337 38.283 39.4425 38.1911 39.227C37.8863 38.5121 38.3763 37.8004 39.1733 37.8004C39.527 37.8004 39.7216 37.959 41.5547 39.7409C42.6525 40.8082 44.9814 43.1402 46.7299 44.923C49.899 48.1544 49.909 48.166 49.909 48.6259C49.909 49.2778 49.4712 49.7207 48.8268 49.7207H48.3692L43.3572 44.6546ZM33.7989 33.3854C35.0777 32.0896 36.124 31.0023 36.124 30.9693C36.124 30.9362 35.7829 30.5994 35.3659 30.2209L34.6079 29.5326L32.3204 31.8504C31.0623 33.1252 30.0329 34.2035 30.0329 34.2465C30.0329 34.3452 31.3161 35.7415 31.4068 35.7415C31.4436 35.7415 32.5201 34.6812 33.7989 33.3854ZM18.6111 16.3996C14.8551 12.5843 11.7289 9.35611 11.664 9.22592C11.5975 9.09258 11.5447 8.40647 11.543 7.65461L11.5402 6.32L8.85587 4.69451C7.3795 3.80048 5.94774 2.93645 5.67418 2.77443L5.1768 2.47984L4.25068 3.42463L3.32456 4.36941L5.21802 7.59303L7.11147 10.8167L8.42582 10.8169C9.36216 10.8171 9.82316 10.8619 10.0287 10.9728C10.1874 11.0583 13.3702 14.2275 17.1015 18.0155L23.8858 24.9026L24.6631 24.1196L25.4405 23.3366L18.6113 16.3996L18.6111 16.3996Z" fill="#041623"/>
<path opacity="0.973102" d="M48.5764 53.5447C48.2406 53.4322 47.7501 53.2261 47.4864 53.0867C47.2227 52.9473 44.5803 50.1665 41.6143 46.9071C38.6484 43.6476 35.5029 40.193 34.6244 39.23L33.027 37.4793L35.3805 35.0889C36.6749 33.7742 37.7692 32.6988 37.8122 32.6991C37.8983 32.6995 49.9954 43.9539 51.9155 45.8198C53.3943 47.2568 53.7585 47.9832 53.7587 49.4953C53.7588 50.656 53.5659 51.1784 52.7472 52.235C51.8819 53.3517 49.8784 53.9809 48.5764 53.5447ZM49.6339 49.4845C50.0207 49.0923 50.0873 48.5312 49.8028 48.0622C49.379 47.3636 40.0664 38.0859 39.5812 37.879C38.7003 37.5034 37.7956 38.231 38.057 39.1049C38.1109 39.2852 40.4288 41.7491 43.2079 44.5801C48.0331 49.4955 48.2864 49.7275 48.8275 49.7275C49.1392 49.7275 49.5021 49.6182 49.6339 49.4845Z" fill="#FEA22D"/>
<path opacity="0.973102" d="M16.9776 17.7635C11.9854 12.7705 9.98918 10.8699 9.66911 10.805C9.42692 10.7558 8.76522 10.7156 8.19868 10.7156H7.16859L5.29272 7.53342L3.41684 4.3512L4.24164 3.50426C4.69528 3.03844 5.15141 2.67659 5.25526 2.70015C5.35911 2.7237 6.78147 3.54412 8.41605 4.52329L11.388 6.30359L11.3961 6.86142C11.4005 7.16822 11.4499 7.86362 11.5059 8.40676L11.6077 9.39427L18.4485 16.3733L25.2892 23.3523L24.6381 24.0004C24.2799 24.3568 23.9551 24.6449 23.9163 24.6406C23.8775 24.6363 20.7551 21.5416 16.9776 17.7635Z" fill="#A6D9D7"/>
<path opacity="0.973102" d="M30.7122 34.8625L30.1127 34.2399L32.3499 31.9711L34.5872 29.7024L35.2846 30.2819C35.8336 30.7381 35.9525 30.9169 35.8433 31.122C35.6525 31.4804 31.619 35.4851 31.4488 35.4851C31.3734 35.4851 31.0419 35.2049 30.7122 34.8625Z" fill="#A6D9D7"/>
<path opacity="0.973102" d="M11.2244 53.5033C11.3119 53.3424 12.0751 52.5154 12.9204 51.6655L14.4573 50.1204V48.0252V45.9301L12.585 44.036L10.7128 42.1419H8.7327H6.75264L4.93989 43.9609L3.12714 45.7799L3.20305 44.464C3.29731 42.83 3.70923 41.6117 4.63104 40.2406C5.53643 38.8939 6.44548 38.103 7.96932 37.3362C9.84065 36.3945 11.4959 36.1931 13.6176 36.6488C14.2053 36.7751 14.8173 36.8784 14.9775 36.8784C15.2704 36.8784 28.9155 23.2081 34.4923 17.3275L37.251 14.4186L36.9782 12.6543C36.7472 11.1603 36.7326 10.7048 36.8825 9.68235C37.415 6.05211 40.2728 3.07783 43.8495 2.43162C45.177 2.19176 45.9049 2.14551 45.9049 2.30101C45.9049 2.35595 45.1492 3.2197 44.2257 4.22048L42.5464 6.04007L42.5515 8.02953L42.5565 10.019L44.2889 11.8767L46.0212 13.7344L48.1238 13.7856L50.2264 13.8367L52.0348 12.0077L53.8431 10.1786L53.8407 11.0277C53.8315 14.4833 51.486 17.7799 48.1182 19.0706C46.8443 19.5588 44.8445 19.6578 43.1884 19.3146L41.9223 19.0522L39.3719 21.5282C37.9692 22.89 32.9847 27.9058 28.2953 32.6743L19.7691 41.3443L19.8617 42.1688C19.9126 42.6223 19.9956 43.7749 20.0462 44.7301C20.1618 46.9143 19.8606 48.0633 18.7187 49.7947C17.1867 52.1175 15.0235 53.4004 12.1555 53.687C11.1164 53.7908 11.0725 53.7821 11.2242 53.5033H11.2244ZM19.447 38.7091C20.0705 38.1151 19.7637 37.1574 18.8444 36.8282C18.1971 36.5964 17.3892 37.4698 17.6001 38.1733C17.8676 39.0654 18.7916 39.3335 19.447 38.7091ZM29.3006 28.8308C35.8589 22.1487 36.2874 21.6787 36.2874 21.1677C36.2874 20.4937 35.8421 20.0042 35.2289 20.0042C34.8443 20.0042 33.9458 20.841 28.8707 25.9256C22.3999 32.4086 20.5636 34.3861 20.5636 34.8716C20.5636 35.3701 21.2355 35.9495 21.8134 35.9495C22.2702 35.9495 22.9217 35.3301 29.3006 28.8308ZM38.9384 18.9093C39.458 18.4948 39.4909 17.6813 39.0065 17.2237C37.9426 16.2185 36.5484 17.806 37.5781 18.8502C38.0359 19.3144 38.4101 19.3306 38.9384 18.9093Z" fill="#A6D9D7"/>
<path d="M14.2862 30.6724C14.1703 30.6593 13.8183 30.6218 13.5039 30.589C11.967 30.4286 10.2038 29.9312 8.72762 29.2418C7.06595 28.4657 5.9557 27.7194 4.66542 26.5109C3.26585 25.2 2.41431 24.075 1.55397 22.4C0.786975 20.9067 0.305153 19.3717 0.073074 17.6823C-0.024358 16.973 -0.024358 14.8026 0.073074 14.0933C0.452606 11.3304 1.61139 8.69995 3.37532 6.59711C4.00565 5.84566 5.30889 4.62758 6.07415 4.07462C8.22879 2.51772 10.7849 1.5199 13.5039 1.17433C14.2412 1.08061 16.4976 1.08061 17.235 1.17433C18.9167 1.38807 20.5588 1.85548 22.0112 2.53378C23.6729 3.30985 24.7831 4.05625 26.0734 5.26472C27.473 6.57555 28.3245 7.70063 29.1848 9.37563C29.9518 10.8689 30.4337 12.4039 30.6657 14.0933C30.7632 14.8026 30.7632 16.973 30.6657 17.6823C30.2862 20.4452 29.1274 23.0756 27.3635 25.1785C26.7332 25.9299 25.4299 27.148 24.6647 27.701C22.5284 29.2446 19.9379 30.2609 17.2951 30.592C16.7674 30.6581 14.6593 30.7145 14.2862 30.6724ZM17.119 27.896C22.6615 27.1524 27.0803 22.9021 27.8533 17.5707C27.9761 16.7236 27.9761 15.052 27.8533 14.2049C27.5958 12.4286 26.8982 10.6702 25.8685 9.20197C25.3382 8.44572 25.2722 8.36263 25.2021 8.36263C25.1321 8.36263 7.54613 25.2783 7.54613 25.3457C7.54613 25.4133 7.63223 25.4765 8.41873 25.9868C9.9137 26.9568 11.7624 27.6429 13.553 27.8923C14.3703 28.0061 16.2835 28.0081 17.119 27.8959V27.896ZM14.3914 14.9472C19.2321 10.2911 23.1927 6.45827 23.1927 6.42991C23.1927 6.36232 23.1066 6.29906 22.3201 5.78875C20.7952 4.79936 19.0097 4.14327 17.1337 3.883C16.2391 3.75888 14.4997 3.75888 13.6051 3.883C8.0395 4.65517 3.6918 8.8372 2.88905 14.1907C2.76001 15.0513 2.76001 16.7243 2.88905 17.5849C3.12801 19.1785 3.70176 20.7478 4.52819 22.0681C4.92066 22.6951 5.45423 23.4108 5.53006 23.412C5.56311 23.4124 9.55073 19.6034 14.3914 14.9472Z" fill="#B70072"/>
</svg>
