<svg width="38" height="36" viewBox="0 0 38 36" fill="none" xmlns="http://www.w3.org/2000/svg">
<path d="M8.61879 35.1444C-1.17789 28.7358 -2.80947 14.9398 5.22167 6.41979C8.81626 2.60638 13.6979 0.519891 19.0431 0.512288C26.0708 0.502292 32.4079 4.25182 35.7038 10.37C39.0419 16.5667 38.6774 24.0688 34.7527 29.9402C33.6847 31.538 31.3817 33.8439 29.7906 34.9084C28.2181 35.9605 27.898 36.0711 27.5515 35.6819C26.9759 35.0352 21.4973 25.1553 21.4973 24.7639C21.4973 24.4747 21.6466 24.2694 21.983 24.096C22.8776 23.635 23.9529 22.2529 24.3465 21.0582C24.7756 19.7556 24.7972 19.1865 24.4645 17.941C23.771 15.3443 21.2165 13.5228 18.5998 13.7593C15.3251 14.0552 12.8973 17.1484 13.5189 20.2328C13.8511 21.881 14.9244 23.4758 16.1236 24.1029C16.4404 24.2686 16.589 24.4798 16.589 24.7642C16.589 25.2446 10.9837 35.234 10.4642 35.6795C10.2748 35.8418 10.0677 35.9747 10.0039 35.9747C9.94011 35.9747 9.3168 35.6011 8.61879 35.1444V35.1444Z" fill="white"/>
</svg>
