<svg width="40" height="40" viewBox="0 0 40 40" fill="none" xmlns="http://www.w3.org/2000/svg">
<path d="M9.15921 38.4065C-1.09313 31.4637 -2.8006 16.5181 5.60408 7.28809C9.36586 3.15689 14.4745 0.896534 20.0684 0.888297C27.4229 0.877468 34.0547 4.93945 37.504 11.5675C40.9974 18.2805 40.6158 26.4079 36.5087 32.7685C35.391 34.4995 32.9809 36.9975 31.3158 38.1508C29.6701 39.2906 29.3351 39.4104 28.9725 38.9887C28.3701 38.2881 22.6367 27.5849 22.6367 27.1609C22.6367 26.8476 22.793 26.6251 23.145 26.4373C24.0812 25.9379 25.2066 24.4407 25.6185 23.1464C26.0675 21.7353 26.0901 21.1187 25.742 19.7694C25.0162 16.9563 22.3428 14.9831 19.6044 15.2392C16.1774 15.5597 13.6367 18.9108 14.2872 22.2522C14.6349 24.0378 15.7581 25.7654 17.013 26.4448C17.3446 26.6243 17.5001 26.8531 17.5001 27.1612C17.5001 27.6817 11.6341 38.5035 11.0904 38.9861C10.8923 39.162 10.6755 39.3059 10.6088 39.3059C10.542 39.3059 9.88968 38.9011 9.15921 38.4065Z" fill="white"/>
</svg>
